<svg width="24" height="20" viewBox="0 0 24 20" fill="none" xmlns="http://www.w3.org/2000/svg">
<path d="M4.5 14.375C4.5 14.0625 4.77344 13.75 5.125 13.75H7.625C7.9375 13.75 8.25 14.0625 8.25 14.375C8.25 14.7266 7.9375 15 7.625 15H5.125C4.77344 15 4.5 14.7266 4.5 14.375ZM9.5 14.375C9.5 14.0625 9.77344 13.75 10.125 13.75H15.125C15.4375 13.75 15.75 14.0625 15.75 14.375C15.75 14.7266 15.4375 15 15.125 15H10.125C9.77344 15 9.5 14.7266 9.5 14.375ZM0.75 3.75C0.75 2.38281 1.84375 1.25 3.25 1.25H20.75C22.1172 1.25 23.25 2.38281 23.25 3.75V16.25C23.25 17.6562 22.1172 18.75 20.75 18.75H3.25C1.84375 18.75 0.75 17.6562 0.75 16.25V3.75ZM2 3.75V5H22V3.75C22 3.08594 21.4141 2.5 20.75 2.5H3.25C2.54688 2.5 2 3.08594 2 3.75ZM2 8.75H22V6.25H2V8.75ZM2 10V16.25C2 16.9531 2.54688 17.5 3.25 17.5H20.75C21.4141 17.5 22 16.9531 22 16.25V10H2Z" fill="#707780"/>
</svg>
